<?xml version="1.0" encoding="utf-8"?>
<!-- Generator: Adobe Illustrator 27.9.0, SVG Export Plug-In . SVG Version: 6.00 Build 0)  -->
<svg version="1.1"
	 id="Layer_1" image-rendering="optimizeQuality" text-rendering="geometricPrecision" shape-rendering="geometricPrecision"
	 xmlns="http://www.w3.org/2000/svg" xmlns:xlink="http://www.w3.org/1999/xlink" x="0px" y="0px" viewBox="0 0 400 400"
	 style="enable-background:new 0 0 400 400;" xml:space="preserve">
<style type="text/css">
	.st0{fill-rule:evenodd;clip-rule:evenodd;}
</style>
<path class="st0" d="M325,0H75C33.6,0,0,33.6,0,75v250c0,41.4,33.6,75,75,75h250c41.4,0,75-33.6,75-75V75C400,33.6,366.4,0,325,0z
	 M314.8,215.4h-37.4v138.5h-62.5V215.4h-24.3v-46.7h24.3V139c0-38.9,16.2-62.1,62.1-62.1h46.5v46.5h-27.1
	c-17.9,0-19.1,6.7-19.1,19.1l-0.1,26.2h42.5L314.8,215.4L314.8,215.4z"/>
</svg>
