<?xml version="1.0" encoding="utf-8"?>
<!-- Generator: Adobe Illustrator 27.9.0, SVG Export Plug-In . SVG Version: 6.00 Build 0)  -->
<svg version="1.1" id="Layer_1" xmlns="http://www.w3.org/2000/svg" xmlns:xlink="http://www.w3.org/1999/xlink" x="0px" y="0px"
	 viewBox="0 0 400 400" style="enable-background:new 0 0 400 400;" xml:space="preserve">
<style type="text/css">
	.st0{fill-rule:evenodd;clip-rule:evenodd;fill:#FFFFFF;}
	.st1{fill-rule:evenodd;clip-rule:evenodd;}
</style>
<g>
	<path class="st0" d="M0,0h400v400H0V0z"/>
	<path class="st1" d="M207.6,141.6v11.1h22.8v105.7h35.4V152.7h22.8v-11.1H207.6L207.6,141.6z M294.9,141.6h70.3v11.1h-34.9v36.4
		h34.9v11.1h-34.9v47h34.9v11.1h-70.3V141.6z M126.2,198.6c0,12.3,9.1,22.4,20.8,24.2v35.6h35.4l0-35.7c11.6-1.9,20.4-12,20.4-24.1
		v-57h-15l-0.1,52.3c-0.1,7.2-6.1,12.9-13.3,12.8c-7-0.1-12.7-5.8-12.8-12.8v-52.3h-35.4L126.2,198.6L126.2,198.6z M74.1,189.1h30
		v-36.4h-30V189.1z M34.8,258.4V141.6h73.6c5.8,0,10.5,4.6,10.5,10.3v32.1c0,4.5-2.8,8.6-6.7,10.1c4,1.5,6.7,5.6,6.7,10.1v43.8
		c0,5.8-4.7,10.3-10.5,10.3H34.8z M74.1,247.3h30v-47h-30V247.3z"/>
</g>
</svg>
