<?xml version="1.0" encoding="utf-8"?>
<!-- Generator: Adobe Illustrator 27.9.0, SVG Export Plug-In . SVG Version: 6.00 Build 0)  -->
<svg version="1.1" id="Layer_1" xmlns="http://www.w3.org/2000/svg" xmlns:xlink="http://www.w3.org/1999/xlink" x="0px" y="0px"
	 viewBox="0 0 400 264.8" style="enable-background:new 0 0 400 264.8;" xml:space="preserve">
<path d="M28.6,264.8c-0.2,0-0.7-0.1-1.3-0.1c-4.9-0.5-10.1-2.5-14.2-5.4C7,254.8,2.7,248.4,0.9,241c-1-3.9-1.1-8.3-0.5-12.4
	c1.6-10.9,8.8-20.2,18.8-24.3c2.5-1,4.9-1.7,7.9-2.1c1.6-0.2,5.5-0.2,7.2,0c3.4,0.5,6.4,1.3,9.4,2.8c3.3,1.6,5.6,3.2,8.3,6
	c2.4,2.4,3.9,4.4,5.6,7.6l0.4,0.7l-1.3,1c-1.8,1.3-6,4.3-7.4,5.3l-1.1,0.8l-0.5-1c-0.6-1.3-1-2-1.7-3c-2.7-4-6.9-6.8-11.5-7.7
	c-2.4-0.5-5.5-0.4-7.9,0.1c-2.5,0.6-5.3,1.9-7.4,3.5c-0.8,0.7-2.4,2.2-3.1,3.1c-3.7,4.6-5.1,10.5-3.8,16.4c0.4,2,1.6,4.7,2.8,6.5
	c3.1,4.7,7.9,7.7,13.4,8.4c1,0.1,3.3,0.1,4.2,0c4.8-0.6,9.3-3.1,12.3-6.9c0.9-1.1,1.5-2.1,2.2-3.5c0.3-0.6,0.6-1.1,0.6-1.1
	s2.3,1.6,4.9,3.5l4.9,3.5l-0.5,0.9c-1,1.9-2.8,4.4-4.4,6.1c-2.8,3-5.5,5-9.1,6.7c-3.1,1.5-6.3,2.5-9.8,2.9
	C33.1,264.8,29.2,264.9,28.6,264.8z M70.3,233.1v-30.5h11.8v21.9H113v-21.9h11.8v61H113v-26.8H82.1v26.8H70.3V233.1z M136.8,258.2
	c1.3-3,7.4-16.7,13.5-30.5l11.1-25.1l8.3,0l8.3,0l13.5,30.1c7.4,16.6,13.5,30.3,13.6,30.5l0.2,0.4h-14.2l-2.7-6l-2.7-6l-15.8,0
	l-15.8,0l-2.7,6l-2.7,6h-14.2L136.8,258.2L136.8,258.2z M180.7,239.2c0-0.2-10.8-24.2-10.8-24.2c0,0-10.2,23.8-10.4,24.3
	c0,0.1,4.1,0.1,10.6,0.1C179.1,239.3,180.7,239.3,180.7,239.2z M214.9,233.1v-30.5l8.3,0l8.3,0l13,18.3l13,18.3l0-18.3l0-18.3h11.9
	v61l-4.8,0l-4.8,0l-16.5-22.9c-9.1-12.6-16.6-22.9-16.6-22.9c0,0-0.1,10.3-0.1,23v23h-11.9V233.1z M291.1,233.1v-30.5h42.7v12.3H303
	v12.2h28.4v12.3H303v12.2h35.2v12.1h-47.1V233.1z M354.9,233.1v-30.5h11.9v48.9H400v12.1h-45.1V233.1z M150.5,187.1
	c-12.7-0.6-26.9-4.5-38.4-10.5c-8.8-4.6-15.7-9.8-23-17.1c-5.7-5.7-9.9-11-13.5-16.9l-1.6-2.6l2.2-1.2c4.3-2.3,24-12.4,24.1-12.4
	c0.1,0,0.9,1.1,1.8,2.5c10.3,15.3,26.3,25.2,45.1,27.9c3.3,0.5,13.1,0.4,16.7-0.1c4-0.6,8.7-1.7,11.8-2.7c0.2-0.1-0.2-0.7-1-1.7
	c-6.7-7.9-12.8-18.8-16.3-28.9c-6.2-18.3-6.7-37.9-1.3-56.3c3.3-11.4,9.1-22.6,16.4-31.6c1.1-1.4,2-2.5,2-2.7c0-0.4-5.7-1.9-9.4-2.5
	c-5.8-1-14.8-1.1-20-0.3c-8.8,1.4-17.7,4.7-24.6,9.1c-7.8,4.9-14.2,11.2-19.4,18.9l-2.3,3.4L97,60.1c-1.6-0.8-7.5-3.9-13.2-6.8
	s-10.3-5.3-10.3-5.3c-0.1-0.1,3.4-5.7,4.9-7.8c4.4-6.4,12.3-14.8,18.1-19.4c15.2-12,32-18.8,51-20.5c3.5-0.3,12.2-0.3,15.6,0
	c12,1.1,22.4,4,33,9.3l5.1,2.5l1.7-1c2.8-1.6,7.7-3.8,11.4-5.3c10.4-4,21-5.9,32.6-5.9c8.1,0,14.9,0.8,22.2,2.6
	c16.6,4.1,30.8,12,43,23.9c6.6,6.5,11.8,13.1,16,20.3l0.6,1.1l-10.3,5.3c-5.7,2.9-11.6,6-13.2,6.8l-2.9,1.5l-2.2-3.3
	c-10.7-16.2-28.3-26.7-47.5-28.5c-5.7-0.5-14.1,0-19.3,1.1c-2.6,0.6-6.9,1.8-6.9,2c0,0.1,0.7,1,1.6,2.1c11,13.5,17.9,30,20.1,48.1
	c0.5,4.3,0.6,15.4,0.1,19.7c-2,18.1-8.9,34.9-19.8,48.3c-2.5,3.1-2.4,2.8-1.6,3.1c0.4,0.1,2.1,0.6,3.9,1.1c9,2.3,18.7,2.6,27.8,0.9
	c16.6-3.1,31.5-12.9,41.1-27c0.9-1.3,1.7-2.5,1.8-2.6c0.1-0.1,2.3,0.9,4.9,2.2c5.2,2.6,21.4,11,21.6,11.2c0.3,0.3-4.9,8-8,11.9
	c-3,3.8-10.9,11.6-14.6,14.6c-13.6,10.8-28.8,17.3-45.6,19.7c-19.3,2.7-39.7-0.9-56.2-10l-2.3-1.3l-2.9,1.5
	C183.8,184.2,167.3,187.9,150.5,187.1L150.5,187.1z M204.3,134.1c8-9.9,13-22,14.3-34.4c0.4-4.1,0.2-12.6-0.5-16.4
	c-1.8-10.4-5.6-19.3-11.7-27.4c-1.2-1.5-2.8-3.6-3.7-4.6l-1.6-1.8l-1.5,1.6c-2,2.2-5.3,6.6-7,9.3c-8.5,13.8-11.3,30.8-7.7,46.9
	c2.3,10.2,7.5,20.4,14.6,28.5l1.6,1.9l0.7-0.7C202.1,136.8,203.3,135.4,204.3,134.1L204.3,134.1z"/>
</svg>
