<?xml version="1.0" encoding="utf-8"?>
<!-- Generator: Adobe Illustrator 27.9.0, SVG Export Plug-In . SVG Version: 6.00 Build 0)  -->
<svg version="1.1" id="Layer_1" xmlns="http://www.w3.org/2000/svg" xmlns:xlink="http://www.w3.org/1999/xlink" x="0px" y="0px"
	 viewBox="0 0 400 375.6" style="enable-background:new 0 0 400 375.6;" xml:space="preserve">
<path d="M396,287.5c-57.3-9.4-83-68-84.1-70.5l-0.1-0.2c-3.3-5.4-4-12-2-18c3.8-9.1,16.6-13.1,25-15.8c2.1-0.7,4.1-1.3,5.7-1.9
	c15.3-6,18.4-12.3,18.3-16.4c-0.8-5.3-4.8-9.6-10-10.9l-0.1,0c-2.3-0.9-4.7-1.4-7.1-1.4c-2.2,0-4.3,0.4-6.3,1.3
	c-6,3-12.4,4.8-19.1,5.3c-3.8,0.1-7.6-1.2-10.6-3.6l0.6-10.6l0.1-1.3c3.9-26.9,2.2-54.4-4.8-80.7C284.5,24.2,246.1-0.5,203.9,0
	l-8,0.1c-42.1-0.5-80.4,24.2-97.3,62.7c-7,26.3-8.7,53.7-4.8,80.6c0.3,4,0.5,8,0.7,12c-3.3,2.6-7.5,3.9-11.7,3.6
	c-7.1-0.3-14-2.1-20.3-5.4c-1.5-0.7-3.2-1-4.9-1c-7.1-0.3-13.6,4-16.2,10.7c-1.6,8.6,10.6,14.9,18.1,17.8c1.6,0.6,3.6,1.3,5.7,1.9
	c8.4,2.7,21.2,6.7,25,15.8c2,6,1.3,12.6-2,18l-0.1,0.2c-5.5,12-12.7,23.2-21.4,33.3C51,269.8,28.7,283.1,4,287.5
	c-2.4,0.4-4.1,2.6-4,5c0,0.9,0.2,1.8,0.6,2.6c3.5,8.2,21.2,15,51.1,19.6c2.8,0.4,4,5,5.6,12.4c0.6,3,1.3,6.1,2.3,9.3
	c0.6,2.9,3.4,4.9,6.4,4.6c2.9-0.2,5.7-0.6,8.5-1.2c7.4-1.6,14.9-2.5,22.4-2.5c5.4,0,10.8,0.5,16.2,1.4c11.3,2.9,21.8,8.2,30.7,15.7
	c15.1,12.9,34,20.3,53.8,21.2c0.7,0,1.3,0,2-0.1c0.8,0,1.9,0.1,3,0.1c19.8-0.9,38.8-8.3,53.8-21.2c8.9-7.5,19.4-12.8,30.7-15.7
	c5.3-0.9,10.7-1.3,16.2-1.4c7.5,0,15,0.8,22.4,2.4c2.8,0.6,5.6,1,8.5,1.1h0.5c2.8,0.2,5.3-1.7,5.9-4.4c0.9-3.1,1.6-6.1,2.3-9.2
	c1.6-7.4,2.8-12,5.6-12.4c29.9-4.6,47.5-11.4,51-19.6c0.4-0.8,0.6-1.7,0.6-2.6C400.1,290.1,398.4,288,396,287.5L396,287.5z"/>
</svg>
