<?xml version="1.0" encoding="utf-8"?>
<!-- Generator: Adobe Illustrator 27.9.0, SVG Export Plug-In . SVG Version: 6.00 Build 0)  -->
<svg version="1.1" id="Layer_1" xmlns="http://www.w3.org/2000/svg" xmlns:xlink="http://www.w3.org/1999/xlink" x="0px" y="0px"
	 viewBox="0 0 400 52.1" style="enable-background:new 0 0 400 52.1;" xml:space="preserve">
<style type="text/css">
	.st0{fill:#5E5E5E;}
</style>
<g id="TESLA">
	<path class="st0" d="M341.9,20.7v31.4h10.1v-21h36.8v21h10.1V20.7H341.9 M350.8,10.5h38.8c5.5-1,9.3-5.9,10.5-10.5h-59.7
		C341.4,4.6,345.4,9.3,350.8,10.5 M311.3,52.1c5-2.2,7.8-5.9,8.9-10.2h-45.2V0.1h-10.2v52H311.3 M189.4,10.3h35.9
		c5.5-1.6,9.9-5.7,11.1-10.2h-56.9v30.7H226v10.8h-36.5c-5.7,1.6-10.6,5.5-13.1,10.5H236V20.7h-46.5L189.4,10.3 M100.9,10.5h38.8
		c5.5-1,9.5-5.9,10.5-10.5H90.3C91.5,4.6,95.5,9.3,100.9,10.5 M100.9,31h38.8c5.5-1,9.5-5.9,10.5-10.5H90.3
		C91.5,25.1,95.5,29.9,100.9,31 M100.9,52.1h38.8c5.5-1,9.5-5.9,10.5-10.5H90.3C91.5,46.2,95.5,51.1,100.9,52.1"/>
	<g>
		<path class="st0" d="M0,0.1c1.1,4.6,5.2,9.2,10.5,10.3h16.4l0.9,0.3V52h10.2V10.8l0.9-0.3h16.4C60.6,9,64.5,4.7,65.6,0.1V0L0,0.1"
			/>
	</g>
</g>
</svg>
